<mxfile host="app.diagrams.net" modified="2023-10-08T03:15:11.656Z" agent="Mozilla/5.0 (Macintosh; Intel Mac OS X 10_15_7) AppleWebKit/537.36 (KHTML, like Gecko) Chrome/117.0.0.0 Safari/537.36" etag="lw3sKI377DLybcZ6qbHp" version="22.0.4" type="github">
  <diagram name="Страница — 1" id="_5af58X6gQqTB03gFPoe">
    <mxGraphModel dx="899" dy="617" grid="1" gridSize="10" guides="1" tooltips="1" connect="1" arrows="1" fold="1" page="1" pageScale="1" pageWidth="827" pageHeight="1169" math="0" shadow="0">
      <root>
        <mxCell id="0" />
        <mxCell id="1" parent="0" />
        <mxCell id="vCxmfgHOgyI4xVYoJoi5-1" style="edgeStyle=orthogonalEdgeStyle;rounded=0;orthogonalLoop=1;jettySize=auto;html=1;entryX=0;entryY=0.5;entryDx=0;entryDy=0;exitX=1;exitY=0.25;exitDx=0;exitDy=0;" edge="1" parent="1" source="vCxmfgHOgyI4xVYoJoi5-2" target="vCxmfgHOgyI4xVYoJoi5-4">
          <mxGeometry relative="1" as="geometry">
            <mxPoint x="250" y="180" as="sourcePoint" />
            <mxPoint x="340" y="80" as="targetPoint" />
          </mxGeometry>
        </mxCell>
        <mxCell id="vCxmfgHOgyI4xVYoJoi5-2" value="Умение писать код&lt;br&gt;&lt;div style=&quot;text-align: left;&quot;&gt;&lt;ul&gt;&lt;li&gt;&lt;span style=&quot;background-color: initial;&quot;&gt;ООП&lt;/span&gt;&lt;/li&gt;&lt;li&gt;&lt;span style=&quot;background-color: initial;&quot;&gt;Swift (основы)&lt;/span&gt;&lt;/li&gt;&lt;/ul&gt;&lt;/div&gt;" style="rounded=1;whiteSpace=wrap;html=1;align=center;" vertex="1" parent="1">
          <mxGeometry x="20" y="220" width="266" height="110" as="geometry" />
        </mxCell>
        <mxCell id="vCxmfgHOgyI4xVYoJoi5-3" value="ООП" style="swimlane;whiteSpace=wrap;html=1;" vertex="1" parent="1">
          <mxGeometry x="380" y="90" width="220" height="140" as="geometry" />
        </mxCell>
        <mxCell id="vCxmfgHOgyI4xVYoJoi5-4" value="- Типы данных&lt;br&gt;- Переменные&lt;br&gt;- Функции&lt;br&gt;- Классы&lt;br&gt;- Поля/Методы&lt;br&gt;- Область видимости&lt;br&gt;-Наследование&lt;br&gt;" style="whiteSpace=wrap;html=1;" vertex="1" parent="vCxmfgHOgyI4xVYoJoi5-3">
          <mxGeometry y="20" width="220" height="120" as="geometry" />
        </mxCell>
        <mxCell id="vCxmfgHOgyI4xVYoJoi5-5" value="Swift" style="swimlane;whiteSpace=wrap;html=1;" vertex="1" parent="1">
          <mxGeometry x="380" y="310" width="220" height="160" as="geometry" />
        </mxCell>
        <mxCell id="vCxmfgHOgyI4xVYoJoi5-6" value="&lt;span style=&quot;background-color: initial;&quot;&gt;Переменные и константы&lt;/span&gt;&lt;br&gt;&lt;span style=&quot;background-color: initial;&quot;&gt;Типы в Swift&lt;/span&gt;&lt;br&gt;&lt;span style=&quot;background-color: initial;&quot;&gt;Базовые конструкции&lt;/span&gt;&lt;br&gt;&lt;span style=&quot;background-color: initial;&quot;&gt;Коллекции&lt;/span&gt;&lt;br&gt;&lt;span style=&quot;background-color: initial;&quot;&gt;Структуры и классы&lt;/span&gt;&lt;br&gt;&lt;span style=&quot;background-color: initial;&quot;&gt;Enums&lt;/span&gt;&lt;br&gt;&lt;span style=&quot;background-color: initial;&quot;&gt;Методы и свойства&lt;/span&gt;&lt;br&gt;&lt;span style=&quot;background-color: initial;&quot;&gt;Расширения&lt;/span&gt;&lt;br&gt;&lt;span style=&quot;background-color: initial;&quot;&gt;Опциональные типы&lt;/span&gt;" style="whiteSpace=wrap;html=1;" vertex="1" parent="vCxmfgHOgyI4xVYoJoi5-5">
          <mxGeometry y="20" width="220" height="140" as="geometry" />
        </mxCell>
        <mxCell id="vCxmfgHOgyI4xVYoJoi5-7" value="" style="endArrow=classic;html=1;rounded=0;edgeStyle=orthogonalEdgeStyle;entryX=0;entryY=0.5;entryDx=0;entryDy=0;exitX=1;exitY=0.5;exitDx=0;exitDy=0;" edge="1" parent="1" source="vCxmfgHOgyI4xVYoJoi5-2" target="vCxmfgHOgyI4xVYoJoi5-6">
          <mxGeometry width="50" height="50" relative="1" as="geometry">
            <mxPoint x="290" y="270" as="sourcePoint" />
            <mxPoint x="380" y="380" as="targetPoint" />
          </mxGeometry>
        </mxCell>
        <mxCell id="vCxmfgHOgyI4xVYoJoi5-8" value="Swift. Основы разработки приложений под iOS, iPadOS и macOS" style="rounded=1;whiteSpace=wrap;html=1;" vertex="1" parent="1">
          <mxGeometry x="640" y="90" width="360" height="380" as="geometry" />
        </mxCell>
      </root>
    </mxGraphModel>
  </diagram>
</mxfile>
